<?xml version="1.0" standalone="no"?>
<!DOCTYPE svg PUBLIC "-//W3C//DTD SVG 20010904//EN"
 "http://www.w3.org/TR/2001/REC-SVG-20010904/DTD/svg10.dtd">
<svg version="1.0" xmlns="http://www.w3.org/2000/svg"
 width="608.000000pt" height="608.000000pt" viewBox="0 0 608.000000 608.000000"
 preserveAspectRatio="xMidYMid meet">
<metadata>
Created by potrace 1.11, written by Peter Selinger 2001-2013
</metadata>
<g transform="translate(0.000000,608.000000) scale(0.100000,-0.100000)"
fill="#000000" stroke="none">
<path d="M4265 6049 c-19 -17 -35 -36 -35 -42 0 -6 -7 -18 -16 -28 -8 -9 -17
-23 -18 -31 -2 -7 -8 -26 -15 -43 -27 -65 -76 -226 -96 -315 -2 -8 -13 -54
-23 -102 -24 -105 -26 -109 -60 -103 -93 16 -877 23 -1192 11 -228 -9 -515
-27 -655 -41 -171 -17 -195 -17 -195 -1 0 9 -12 46 -26 83 -107 279 -261 472
-381 479 -38 2 -46 -1 -67 -29 -26 -34 -51 -119 -60 -202 -4 -27 -8 -61 -11
-75 -6 -26 -13 -203 -19 -470 -8 -327 -17 -616 -20 -644 -2 -15 -9 -31 -15
-35 -74 -46 -315 -289 -422 -426 -92 -117 -202 -281 -240 -355 -12 -25 -27
-51 -32 -58 -17 -21 -117 -243 -117 -257 0 -7 -3 -15 -7 -17 -20 -8 -131 -385
-148 -498 -4 -24 -9 -48 -11 -52 -10 -16 23 -20 321 -33 61 -3 151 -7 200 -10
72 -3 93 -7 103 -22 87 -121 157 -213 216 -283 79 -95 318 -336 385 -390 24
-19 53 -44 65 -55 11 -11 55 -45 96 -75 41 -30 77 -57 80 -61 14 -18 313 -209
327 -209 3 0 14 -6 22 -14 23 -20 338 -178 381 -191 3 -1 21 -9 40 -17 19 -9
60 -25 90 -36 30 -11 64 -24 75 -28 27 -10 26 -10 60 -18 17 -4 38 -11 47 -17
55 -29 182 25 398 171 129 87 386 277 430 317 14 13 28 23 31 23 4 0 21 12 37
28 17 15 43 37 59 49 15 12 47 39 70 60 23 21 73 66 110 100 160 145 479 474
632 653 90 105 157 202 186 270 11 25 24 48 30 52 5 4 7 8 2 8 -4 0 2 17 12
39 14 27 28 40 48 44 15 3 79 21 141 40 61 19 112 33 112 30 0 -3 6 -1 13 5 6
6 30 14 52 18 50 10 43 8 90 22 22 6 56 13 76 16 20 3 44 8 53 12 17 6 37 10
79 13 21 1 22 18 0 67 -9 22 -17 41 -17 44 -2 15 -124 253 -152 298 -19 29
-34 57 -34 62 0 6 -3 10 -8 10 -4 0 -13 13 -20 28 -6 16 -21 38 -32 50 -11 12
-20 24 -20 28 0 3 -10 19 -22 34 -13 15 -32 40 -43 56 -18 24 -103 129 -130
160 -45 52 -177 182 -227 226 -33 29 -66 58 -72 64 -18 17 -182 141 -200 151
-19 10 -23 27 -31 133 -8 104 -14 159 -19 200 -6 50 -15 137 -21 200 -3 30 -7
66 -10 80 -3 14 -7 45 -9 70 -3 25 -7 61 -10 80 -6 42 -23 167 -31 230 -3 25
-8 59 -12 75 -3 17 -7 41 -8 55 -2 27 -12 90 -20 130 -3 14 -8 41 -11 60 -13
83 -21 115 -35 142 -25 47 -46 49 -94 7z m335 -2738 c25 -1 25 -2 23 -74 -2
-114 -12 -200 -23 -207 -38 -23 -438 -414 -590 -576 -69 -73 -181 -197 -231
-255 -154 -179 -432 -457 -585 -587 -22 -18 -53 -45 -69 -60 -17 -15 -48 -40
-69 -57 -21 -16 -59 -47 -84 -67 l-46 -37 -17 26 c-39 59 -248 228 -407 328
-8 6 -23 15 -31 22 -19 14 -303 217 -346 247 -16 12 -32 24 -35 27 -3 3 -43
34 -90 69 -47 35 -90 69 -97 75 -6 5 -26 21 -44 35 -138 104 -532 494 -524
519 2 9 7 88 10 176 3 88 10 164 15 169 8 8 74 19 240 41 19 3 68 9 110 15 41
5 100 13 130 16 89 9 190 21 253 30 21 3 64 7 95 9 31 2 57 5 57 5 0 1 18 3
39 5 162 14 194 17 216 20 25 4 104 10 255 20 44 3 100 8 125 10 40 4 84 7
320 20 84 5 293 16 395 20 44 2 215 7 380 10 165 4 301 8 302 8 1 2 271 0 323
-2z"/>
<path d="M3064 3139 c-120 -14 -205 -74 -198 -139 1 -14 3 -29 3 -35 2 -26 66
-80 152 -127 l46 -26 44 28 c126 80 189 202 135 262 -12 12 -28 25 -36 27 -52
13 -92 16 -146 10z"/>
<path d="M3415 2677 c-65 -96 -116 -140 -188 -162 -36 -11 -50 -11 -82 1 -43
14 -102 72 -124 119 l-13 30 -16 -25 c-34 -51 -112 -121 -158 -142 -125 -55
-253 -10 -407 144 -48 48 -80 55 -69 15 3 -11 17 -31 30 -44 14 -13 23 -26 20
-28 -3 -3 -11 1 -18 10 -20 24 -32 18 -26 -12 4 -16 8 -37 11 -48 21 -100 76
-264 121 -364 33 -71 94 -171 105 -171 5 0 9 -5 9 -12 0 -26 138 -128 175
-129 2 0 24 -6 47 -13 81 -24 174 -6 225 43 53 50 76 112 74 199 -3 147 -39
311 -90 404 l-30 57 38 -38 c82 -82 208 -64 324 48 53 52 107 127 107 149 0 6
-7 12 -15 16 -10 3 -26 -12 -50 -47z m-931 -156 c-2 -3 -12 3 -22 13 -16 17
-16 18 5 5 12 -7 20 -15 17 -18z"/>
<path d="M5524 2761 c-153 -104 -263 -180 -279 -193 -5 -4 -50 -38 -100 -74
-172 -128 -291 -227 -392 -329 -170 -173 -202 -223 -219 -350 -10 -68 -11
-1674 -1 -1688 4 -8 10 -9 15 -2 4 6 30 26 57 45 138 95 373 311 473 435 31
39 59 72 62 75 29 26 166 229 228 336 40 70 152 297 157 318 1 6 7 25 14 41
48 116 131 412 145 520 3 22 9 57 12 78 25 161 35 437 20 592 -16 163 -34 277
-44 286 -4 3 -70 -37 -148 -90z"/>
<path d="M354 2188 c7 -105 16 -189 23 -218 3 -14 7 -38 9 -55 2 -16 5 -37 7
-45 2 -8 7 -33 12 -55 12 -64 13 -66 40 -165 29 -107 61 -202 82 -242 7 -16
11 -28 9 -28 -3 0 14 -42 38 -92 147 -322 308 -562 536 -796 42 -42 109 -106
150 -142 41 -36 77 -67 80 -70 21 -21 170 -130 178 -130 5 0 15 -7 22 -15 7
-8 37 -30 67 -47 31 -18 72 -43 92 -55 38 -23 66 -30 56 -13 -3 5 -8 24 -10
42 -3 18 -10 58 -16 88 -6 30 -12 64 -14 75 -8 46 -55 282 -60 305 -6 26 -9
39 -20 105 -3 22 -8 47 -10 55 -3 8 -7 33 -11 55 -3 22 -8 43 -10 46 -2 4 -6
26 -9 50 -3 23 -10 61 -16 83 -5 23 -11 55 -14 71 -3 28 -17 96 -30 155 -3 14
-8 40 -10 58 -3 18 -11 63 -19 100 -14 62 -48 236 -60 307 -8 44 -13 68 -38
193 -21 105 -24 113 -52 127 -16 8 -35 15 -43 15 -7 0 -21 4 -31 10 -20 11
-439 160 -539 191 -37 12 -77 25 -88 29 -46 19 -271 80 -295 80 -6 0 -9 -26
-6 -72z"/>
</g>
</svg>
